<svg width="16" height="16" viewBox="0 0 16 16" fill="none" xmlns="http://www.w3.org/2000/svg">
<g clip-path="url(#clip0_499_5260)">
<rect width="16" height="16" rx="2" fill="#EEEEEE"/>
<path fill-rule="evenodd" clip-rule="evenodd" d="M2.1841 5.57355C2.07429 5.63918 2.00512 5.75589 2.00027 5.88373C1.99918 5.91261 2.0014 5.94116 2.00669 5.96892V9.47882C2.00317 9.49732 2.001 9.51621 2.00027 9.53534C1.99542 9.66318 2.05555 9.7848 2.16007 9.85856L7.78201 13.826C7.9127 13.9183 8.0873 13.9183 8.21799 13.826L13.8399 9.85856C13.9444 9.7848 14.0046 9.66318 13.9997 9.53534C13.999 9.51621 13.9968 9.49732 13.9933 9.47882V5.96892C13.9986 5.94116 14.0008 5.9126 13.9997 5.88373C13.9949 5.75589 13.9257 5.63918 13.8159 5.57355L8.19396 2.21334C8.07451 2.14194 7.92549 2.14194 7.80604 2.21334L2.1841 5.57355ZM13.2372 6.63231L11.5133 7.8489L13.2372 8.87927V6.63231ZM2.76281 8.87927V6.63231L4.48672 7.8489L2.76281 8.87927ZM10.8033 7.42452L12.929 5.92435L8.38903 3.21082V5.98154L10.8033 7.42452ZM3.07099 5.92435L7.63291 3.1977V5.96843L5.19674 7.42452L3.07099 5.92435ZM5.87257 7.90146L8 6.62991L10.1274 7.90146L8 9.40282L5.87257 7.90146ZM7.63291 10.0692L5.16255 8.32584L3.07099 9.57596L7.63291 12.7954V10.0692ZM8.38903 12.7799L12.929 9.57596L10.8375 8.32584L8.38903 10.0537V12.7799Z" fill="black"/>
</g>
<defs>
<clipPath id="clip0_499_5260">
<rect width="16" height="16" fill="white"/>
</clipPath>
</defs>
</svg>
