<svg width="16" height="16" viewBox="0 0 16 16" fill="none" xmlns="http://www.w3.org/2000/svg">
<rect width="16" height="16" rx="2" fill="#EEEEEE"/>
<path fill-rule="evenodd" clip-rule="evenodd" d="M8 2C4.685 2 2 4.75291 2 8.15176C2 10.8739 3.7175 13.1731 6.1025 13.9882C6.4025 14.0421 6.515 13.8575 6.515 13.696C6.515 13.5499 6.5075 13.0655 6.5075 12.5503C5 12.8348 4.61 12.1735 4.49 11.8274C4.4225 11.6506 4.13 11.1046 3.875 10.9585C3.665 10.8432 3.365 10.5586 3.8675 10.551C4.34 10.5433 4.6775 10.997 4.79 11.1815C5.33 12.112 6.1925 11.8505 6.5375 11.689C6.59 11.2892 6.7475 11.02 6.92 10.8662C5.585 10.7124 4.19 10.1818 4.19 7.8288C4.19 7.15979 4.4225 6.60613 4.805 6.17551C4.745 6.02171 4.535 5.39116 4.865 4.54529C4.865 4.54529 5.3675 4.38381 6.515 5.17585C6.995 5.03743 7.505 4.96823 8.015 4.96823C8.525 4.96823 9.035 5.03743 9.515 5.17585C10.6625 4.37612 11.165 4.54529 11.165 4.54529C11.495 5.39116 11.285 6.02171 11.225 6.17551C11.6075 6.60613 11.84 7.1521 11.84 7.8288C11.84 10.1895 10.4375 10.7124 9.1025 10.8662C9.32 11.0585 9.5075 11.4276 9.5075 12.0043C9.5075 12.8271 9.5 13.4884 9.5 13.696C9.5 13.8575 9.6125 14.0498 9.9125 13.9882C12.2825 13.1731 14 10.8662 14 8.15176C14 4.75291 11.315 2 8 2Z" fill="#151719"/>
</svg>
