<svg width="16" height="16" viewBox="0 0 16 16" fill="none" xmlns="http://www.w3.org/2000/svg">
<g clip-path="url(#clip0_499_5265)">
<rect width="16" height="16" rx="2" fill="#EEEEEE"/>
<path fill-rule="evenodd" clip-rule="evenodd" d="M5.43891 11.6246V6.15012H3.61928V11.6246H5.43891ZM4.52909 5.40267C5.16363 5.40267 5.55858 4.98229 5.55858 4.45693C5.54675 3.91975 5.16363 3.51104 4.54113 3.51104C3.91869 3.51104 3.51172 3.91975 3.51172 4.45693C3.51172 4.98229 3.90658 5.40267 4.51723 5.40267H4.52909Z" fill="#151719"/>
<path fill-rule="evenodd" clip-rule="evenodd" d="M6.44531 11.6246H8.26492V8.56744C8.26492 8.40382 8.27675 8.24036 8.32479 8.1234C8.45634 7.79649 8.75574 7.45792 9.25841 7.45792C9.91685 7.45792 10.1802 7.95995 10.1802 8.6959V11.6246H11.9997V8.48563C11.9997 6.8041 11.102 6.02166 9.90483 6.02166C8.92319 6.02166 8.49225 6.57034 8.25282 6.94407H8.26497V6.15012H6.44536C6.46924 6.66381 6.44531 11.6246 6.44531 11.6246Z" fill="#151719"/>
</g>
<defs>
<clipPath id="clip0_499_5265">
<rect width="16" height="16" fill="white"/>
</clipPath>
</defs>
</svg>
