<svg width="64" height="64" viewBox="0 0 64 64" fill="none" xmlns="http://www.w3.org/2000/svg">
<rect width="64" height="64" rx="32" fill="#EF5840"/>
<path d="M36.2638 48.1779L37.0829 47.6043L36.2638 48.1779ZM33.3142 43.9655L32.7406 43.1463L31.9215 43.7199L32.495 44.5391L33.3142 43.9655ZM37.5266 41.0159L36.953 40.1968L37.5266 41.0159ZM41.7391 38.0663L42.5582 37.4928L41.9846 36.6736L41.1655 37.2472L41.7391 38.0663ZM43.9993 50.2599C46.7782 48.3141 47.4536 44.4841 45.5078 41.7052L43.8695 42.8523C45.1817 44.7264 44.7262 47.3094 42.8522 48.6216L43.9993 50.2599ZM42.8522 48.6216C40.9781 49.9338 38.3951 49.4784 37.0829 47.6043L35.4446 48.7515C37.3904 51.5304 41.2205 52.2057 43.9993 50.2599L42.8522 48.6216ZM37.0829 47.6043L34.1333 43.3919L32.495 44.5391L35.4446 48.7515L37.0829 47.6043ZM33.8878 44.7846L38.1002 41.8351L36.953 40.1968L32.7406 43.1463L33.8878 44.7846ZM41.1655 37.2472L36.953 40.1968L38.1002 41.8351L42.3126 38.8855L41.1655 37.2472ZM45.5078 41.7052L42.5582 37.4928L40.9199 38.6399L43.8695 42.8523L45.5078 41.7052Z" fill="white"/>
<path d="M37.646 24.6344L20.7987 16.0284C20.7987 16.0284 20.3236 15.7575 19.9995 15.9844C19.6755 16.2113 19.7676 16.7504 19.7676 16.7504L22.0925 35.5252C22.0925 35.5252 22.2952 37.1941 23.0894 38.3282C23.8835 39.4623 25.5444 40.1102 25.5444 40.1102L33.3144 43.9655L41.7392 38.0663L40.7739 29.4464C40.7739 29.4464 40.7332 27.664 39.9391 26.5299C39.145 25.3958 37.646 24.6344 37.646 24.6344Z" stroke="white" stroke-width="2"/>
<path d="M20.0562 16.0652L28.1675 27.6494" stroke="white" stroke-width="2"/>
<circle cx="30.0393" cy="30.3228" r="2.36235" transform="rotate(145 30.0393 30.3228)" stroke="white" stroke-width="2"/>
</svg>
